<svg xmlns="http://www.w3.org/2000/svg" viewBox="0 0 120 360"><defs><style>.a{fill:#fff;}</style></defs><title>대지 32</title><path class="a" d="M61.84,49.07,60.09,21.62h-.48L57.86,49.07c-.14,2.16-.21,4.34-.21,6.51h0V80.12c0,2.89.13,5.78.37,8.67l1.58,18.59h.5l1.58-18.59q.38-4.33.37-8.67V55.58h0C62.05,53.41,62,51.23,61.84,49.07Z"/><path class="a" d="M46.53,31.4l-2,46.72V89.71a60.89,60.89,0,0,0,.54,8.1l1.27,9.57h.77l1.27-9.57a60.89,60.89,0,0,0,.54-8.1V78.12l-2-46.72Z"/><polygon class="a" points="7.18 13.31 6.29 41.16 6.29 75.29 7.17 102.83 7.6 102.83 8.48 75.29 8.48 41.16 7.59 13.31 7.18 13.31"/><path class="a" d="M75.13,26c0-1-.08-1.94-.16-2.91s-.18-1.94-.3-2.91L73.3,9.45h-.66L71.27,20.22c-.13,1-.23,1.94-.31,2.91s-.13,1.94-.16,2.91q0,1,0,1.95V51.07l2,42.41h.46l2-42.41V28Q75.16,27,75.13,26Z"/><path class="a" d="M20.83,9.45h-.66L18.8,20.22A61.18,61.18,0,0,0,18.31,28V51.07l2,42.41h.46l2-42.41V28a61.18,61.18,0,0,0-.49-7.77Z"/><path class="a" d="M33.85,21.62h-.47L31.63,49.07c-.14,2.16-.21,4.34-.21,6.51V80.12q0,4.34.37,8.67l1.58,18.59h.49l1.58-18.59q.38-4.33.37-8.67V55.58c0-2.17-.07-4.35-.21-6.51Z"/><path class="a" d="M20.85,139.9h-.72l-1.34,10.52a61.18,61.18,0,0,0-.49,7.77v43.4a61.18,61.18,0,0,0,.49,7.77l1.35,10.58h.7l1.35-10.58a61.18,61.18,0,0,0,.49-7.77v-43.4a61.18,61.18,0,0,0-.49-7.77Z"/><path class="a" d="M34,130.71h-.68l-1.36,10.8a62.33,62.33,0,0,0-.5,7.85v1.73c0,1.65.07,3.29.2,4.93l1.65,21L31.54,204.3c-.08,1.31-.13,2.63-.13,3.95v2.22a62.6,62.6,0,0,0,.5,7.86L33.26,229H34l1.35-10.71a62.59,62.59,0,0,0,.49-7.86v-2.22c0-1.32,0-2.64-.12-3.95L34,177l1.65-21c.13-1.64.19-3.28.19-4.93v-1.73a62.32,62.32,0,0,0-.49-7.85Z"/><path class="a" d="M45.06,191.48l.83,10.87-.69,7.89a62.71,62.71,0,0,0,.53,15.24l.56,3.56h.87l.56-3.56a62.21,62.21,0,0,0,.53-15.24l-.69-7.89.83-10.87a62.38,62.38,0,0,0-.47-13.79l-1.07-7.39,1.55-20.5a62.92,62.92,0,0,0-.51-13.92l-.76-5.17h-.8l-.77,5.17a62.91,62.91,0,0,0-.5,13.92l1.54,20.5-1.07,7.39A63,63,0,0,0,45.06,191.48Z"/><path class="a" d="M73.83,172.76l.92-15.57A61.45,61.45,0,0,0,74,143.51l-.6-3.63H72.5l-.6,3.63a61.45,61.45,0,0,0-.72,13.68l.92,15.57-.78,5.85a60.39,60.39,0,0,0-.55,8.17v20a60.87,60.87,0,0,0,.45,7.4l1.41,11.63h.67l1.41-11.63a60.87,60.87,0,0,0,.45-7.4v-20a60.39,60.39,0,0,0-.55-8.17Z"/><path class="a" d="M60.45,171.77l1.24-21.68A63.08,63.08,0,0,0,61.21,138l-1-7.25h-.73l-1,7.25A63.08,63.08,0,0,0,58,150.09l1.24,21.68-.92,6.2a63.15,63.15,0,0,0-.67,9.11c0,1.8.08,3.59.23,5.38l.95,10.88-.39,3.55a62.48,62.48,0,0,0,.1,14.4l1,7.75h.69l1-7.75a62.48,62.48,0,0,0,.1-14.4l-.39-3.55,1-10.88c.15-1.79.23-3.58.23-5.38a63.15,63.15,0,0,0-.67-9.11Z"/><path class="a" d="M7.55,152.68H7.19l-.76,13.7c-.1,1.88-.16,3.77-.16,5.66v14.71c0,1.88.06,3.77.16,5.66L7.18,206h.38l.75-13.56c.11-1.89.16-3.78.16-5.66V172c0-1.89-.05-3.78-.16-5.66Z"/><path class="a" d="M86.88,189.64l-.7-13.78v-.19L86.7,167a81.45,81.45,0,0,0-.06-12.88l-.34-4.17h-.43l-.35,4.17A82.66,82.66,0,0,0,85.46,167l.53,8.72v.19l-.7,13.78a101.25,101.25,0,0,0,0,10.74l.64,12.8h.39l.63-12.8A101.25,101.25,0,0,0,86.88,189.64Z"/><path class="a" d="M99.48,130.71h-.55L97.5,141.89a61.18,61.18,0,0,0-.49,7.77v60.47a61,61,0,0,0,.49,7.76L98.92,229h.56l1.42-11.15a61,61,0,0,0,.49-7.76V149.66a61.18,61.18,0,0,0-.49-7.77Z"/><path class="a" d="M112.5,130.84h-.36l-1.06,12.45c-.15,1.73-.22,3.47-.22,5.2v63.06c0,1.73.07,3.47.22,5.2l1,12.42h.37l1.06-12.42c.15-1.73.22-3.47.22-5.2V148.49c0-1.73-.07-3.47-.22-5.2Z"/><path class="a" d="M99.48,9.05h-.55L97.5,20.22A61.18,61.18,0,0,0,97,28V88.46a61.18,61.18,0,0,0,.49,7.77l1.42,11.15h.56l1.42-11.15a61.19,61.19,0,0,0,.5-7.77V28a61.19,61.19,0,0,0-.5-7.77Z"/><path class="a" d="M113.56,21.62,112.5,9.18h-.36l-1.06,12.44c-.15,1.73-.22,3.47-.22,5.21V89.88c0,1.74.07,3.47.22,5.2l1,12.43h.37l1.06-12.43c.15-1.73.22-3.46.22-5.2v-63C113.78,25.09,113.71,23.35,113.56,21.62Z"/><path class="a" d="M59.64,257.46l-2,72.59v4.6a61.17,61.17,0,0,0,.87,10.29l1,5.88h.65l1-5.88A61.17,61.17,0,0,0,62,334.65v-4.6l-2-72.59Z"/><path class="a" d="M47,311h-.53l-1.74,21.78c-.13,1.62-.19,3.25-.19,4.87h0A50.67,50.67,0,0,0,46,349.79l.25,1h.94l.25-1a50.68,50.68,0,0,0,1.48-12.14h0c0-1.62-.07-3.25-.2-4.87Z"/><path class="a" d="M73.15,251.84h-.41l-1.5,11.72c0,.43-.1.86-.14,1.28-.09.87-.17,1.73-.23,2.59-.08,1.3-.12,2.6-.12,3.89h0V324a58.94,58.94,0,0,0,.32,6.23L72.67,346h.54l1.61-15.76a61.74,61.74,0,0,0,.32-6.23V271.32h0a61,61,0,0,0-.5-7.76Z"/><polygon class="a" points="85.9 254.6 84.97 279.33 84.97 291.96 84.97 309.16 85.92 328.56 86.21 328.56 87.17 309.16 87.17 291.96 87.17 279.33 86.23 254.6 85.9 254.6"/><path class="a" d="M33.39,257.46l-2,72.59v4.6a61.17,61.17,0,0,0,.87,10.29l1,5.88h.65l1-5.88a61.17,61.17,0,0,0,.87-10.29v-4.6l-2-72.59Z"/><path class="a" d="M20.73,252.49h-.58l-1.41,11.07a61,61,0,0,0-.49,7.76h0V324a61.73,61.73,0,0,0,.31,6.23l1.6,15.64h.56l1.6-15.64a61.74,61.74,0,0,0,.32-6.23V271.32h0a61,61,0,0,0-.5-7.76Z"/><polygon class="a" points="7.09 256.11 6.22 279.33 6.22 291.96 6.22 309.16 7.02 325.49 7.61 325.49 8.41 309.16 8.41 291.96 8.41 279.33 7.54 256.11 7.09 256.11"/><polygon class="a" points="85.88 13.31 84.99 41.16 84.99 75.29 85.87 102.83 86.3 102.83 87.18 75.29 87.18 41.16 86.29 13.31 85.88 13.31"/><path class="a" d="M99.47,252.49h-.55l-1.43,11.18a61.06,61.06,0,0,0-.49,7.77V331.9a61.18,61.18,0,0,0,.49,7.77l1.43,11.15h.55l1.42-11.15a61.19,61.19,0,0,0,.5-7.77V271.44a61.07,61.07,0,0,0-.5-7.77Z"/><path class="a" d="M112.5,252.62h-.36l-1.06,12.45c-.15,1.73-.22,3.46-.22,5.2v63.06c0,1.73.07,3.47.22,5.2l1,12.42h.37l1.06-12.42c.15-1.73.22-3.47.22-5.2V270.27c0-1.74-.07-3.47-.22-5.2Z"/></svg>